<?xml version="1.0" encoding="UTF-8"?>
<svg xmlns="http://www.w3.org/2000/svg" width="250" height="432" viewBox="0 0 250 432">
  <rect x="0" y="0" width="250" height="432" fill="#f7f4ec"/>
  <rect x="49" y="29" width="152" height="68" rx="8" ry="8" fill="#1f3354" stroke="#0e1c30" stroke-width="2"/>
  <text x="125" y="55.2" font-family="sans-serif" font-size="13" text-anchor="middle" dominant-baseline="central" fill="#f6f4ec">
    <tspan x="125" dy="0">Screen Space</tspan>
    <tspan x="125" dy="15.6">(canvas pixels)</tspan>
  </text>
  <rect x="33" y="169" width="184" height="68" rx="8" ry="8" fill="#1f3354" stroke="#0e1c30" stroke-width="2"/>
  <text x="125" y="195.2" font-family="sans-serif" font-size="13" text-anchor="middle" dominant-baseline="central" fill="#f6f4ec">
    <tspan x="125" dy="0">World Space</tspan>
    <tspan x="125" dy="15.6">(infinite 2D plane)</tspan>
  </text>
  <rect x="29" y="309" width="192" height="68" rx="8" ry="8" fill="#1f3354" stroke="#0e1c30" stroke-width="2"/>
  <text x="125" y="335.2" font-family="sans-serif" font-size="13" text-anchor="middle" dominant-baseline="central" fill="#f6f4ec">
    <tspan x="125" dy="0">Local Space</tspan>
    <tspan x="125" dy="15.6">(for rotated shapes)</tspan>
  </text>
  <line x1="125" y1="97" x2="125" y2="169" stroke="#2b466e" stroke-width="2"/>
  <polygon points="125,169 121,161 129,161" fill="#2b466e"/>
  <text x="125" y="121" font-family="sans-serif" font-size="12" text-anchor="middle" dominant-baseline="central" fill="#2b466e">camera.screenToWorld</text>
  <line x1="125" y1="237" x2="125" y2="309" stroke="#2b466e" stroke-width="2"/>
  <polygon points="125,309 121,301 129,301" fill="#2b466e"/>
  <text x="125" y="261" font-family="sans-serif" font-size="12" text-anchor="middle" dominant-baseline="central" fill="#2b466e">shape.worldToLocal</text>
  <text x="240" y="422" font-family="sans-serif" font-size="11" text-anchor="end" fill="#8d9bb1">Generated by DocuShark</text>
</svg>