<?xml version="1.0" encoding="UTF-8"?>
<svg xmlns="http://www.w3.org/2000/svg" width="434" height="364" viewBox="0 0 434 364">
  <rect x="0" y="0" width="434" height="364" fill="#f7f4ec"/>
  <rect x="29" y="145" width="120" height="68" rx="8" ry="8" fill="#1f3354" stroke="#0e1c30" stroke-width="2"/>
  <text x="89" y="171.2" font-family="sans-serif" font-size="13" text-anchor="middle" dominant-baseline="central" fill="#f6f4ec">
    <tspan x="89" dy="0">Editor node</tspan>
    <tspan x="89" dy="15.6">(Tiptap)</tspan>
  </text>
  <rect x="229" y="29" width="168" height="68" rx="8" ry="8" fill="#1f3354" stroke="#0e1c30" stroke-width="2"/>
  <text x="313" y="55.2" font-family="sans-serif" font-size="13" text-anchor="middle" dominant-baseline="central" fill="#f6f4ec">
    <tspan x="313" dy="0">Local persistence</tspan>
    <tspan x="313" dy="15.6">(richText JSON)</tspan>
  </text>
  <rect x="225" y="145" width="176" height="68" rx="8" ry="8" fill="#1f3354" stroke="#0e1c30" stroke-width="2"/>
  <text x="313" y="171.2" font-family="sans-serif" font-size="13" text-anchor="middle" dominant-baseline="central" fill="#f6f4ec">
    <tspan x="313" dy="0">Collab Y.Doc</tspan>
    <tspan x="313" dy="15.6">(relay round-trip)</tspan>
  </text>
  <rect x="221" y="261" width="184" height="48" rx="8" ry="8" fill="#1f3354" stroke="#0e1c30" stroke-width="2"/>
  <text x="313" y="285" font-family="sans-serif" font-size="13" text-anchor="middle" dominant-baseline="central" fill="#f6f4ec">PDF / MCP get_prose</text>
  <line x1="149" y1="179" x2="313" y2="97" stroke="#2b466e" stroke-width="2"/>
  <polygon points="313,97 307.63343685400054,104.15541752799933 304.05572809000085,97" fill="#2b466e"/>
  <text x="231" y="126" font-family="sans-serif" font-size="12" text-anchor="middle" dominant-baseline="central" fill="#2b466e">getHTML</text>
  <line x1="149" y1="179" x2="225" y2="179" stroke="#2b466e" stroke-width="2"/>
  <polygon points="225,179 217,183 217,175" fill="#2b466e"/>
  <text x="187" y="167" font-family="sans-serif" font-size="12" text-anchor="middle" dominant-baseline="central" fill="#2b466e">y-prosemirror</text>
  <line x1="149" y1="179" x2="313" y2="261" stroke="#2b466e" stroke-width="2"/>
  <polygon points="313,261 304.05572809000085,261 307.63343685400054,253.84458247200067" fill="#2b466e"/>
  <text x="424" y="354" font-family="sans-serif" font-size="11" text-anchor="end" fill="#8d9bb1">Generated by DocuShark</text>
</svg>