<?xml version="1.0" encoding="UTF-8"?>
<svg xmlns="http://www.w3.org/2000/svg" width="742" height="312" viewBox="0 0 742 312">
  <rect x="0" y="0" width="742" height="312" fill="#f7f4ec"/>
  <rect x="29" y="109" width="144" height="68" rx="8" ry="8" fill="#1f3354" stroke="#0e1c30" stroke-width="2"/>
  <text x="101" y="135.2" font-family="sans-serif" font-size="13" text-anchor="middle" dominant-baseline="central" fill="#f6f4ec">
    <tspan x="101" dy="0">Shape Data</tspan>
    <tspan x="101" dy="15.6">(plain object)</tspan>
  </text>
  <rect x="245" y="119" width="136" height="48" rx="8" ry="8" fill="#1f3354" stroke="#0e1c30" stroke-width="2"/>
  <text x="313" y="143" font-family="sans-serif" font-size="13" text-anchor="middle" dominant-baseline="central" fill="#f6f4ec">ShapeRegistry</text>
  <rect x="453" y="29" width="260" height="90" rx="8" ry="8" fill="#1f3354" stroke="#0e1c30" stroke-width="2"/>
  <text x="583" y="58.4" font-family="sans-serif" font-size="13" text-anchor="middle" dominant-baseline="central" fill="#f6f4ec">
    <tspan x="583" dy="0">ShapeHandler</tspan>
    <tspan x="583" dy="15.6">render · hitTest · getBounds</tspan>
    <tspan x="583" dy="15.6">getHandles · create · getAnchors</tspan>
  </text>
  <rect x="471" y="167" width="224" height="90" rx="8" ry="8" fill="#1f3354" stroke="#0e1c30" stroke-width="2"/>
  <text x="583" y="196.4" font-family="sans-serif" font-size="13" text-anchor="middle" dominant-baseline="central" fill="#f6f4ec">
    <tspan x="583" dy="0">ShapeMetadata</tspan>
    <tspan x="583" dy="15.6">name · icon · properties</tspan>
    <tspan x="583" dy="15.6">category · defaults</tspan>
  </text>
  <polyline points="173,143 193,143 225,143 245,143" fill="none" stroke="#2b466e" stroke-width="2"/>
  <polygon points="245,143 237,147 237,139" fill="#2b466e"/>
  <polyline points="381,143 401,143 417,143 417,74 433,74 453,74" fill="none" stroke="#2b466e" stroke-width="2"/>
  <polygon points="453,74 445,78 445,70" fill="#2b466e"/>
  <polyline points="381,143 401,143 426,143 426,212 451,212 471,212" fill="none" stroke="#2b466e" stroke-width="2"/>
  <polygon points="471,212 463,216 463,208" fill="#2b466e"/>
  <text x="732" y="302" font-family="sans-serif" font-size="11" text-anchor="end" fill="#8d9bb1">Generated by DocuShark</text>
</svg>