<?xml version="1.0" encoding="UTF-8"?>
<svg xmlns="http://www.w3.org/2000/svg" width="178" height="392" viewBox="0 0 178 392">
  <rect x="0" y="0" width="178" height="392" fill="#f7f4ec"/>
  <rect x="29" y="29" width="120" height="68" rx="8" ry="8" fill="#1f3354" stroke="#0e1c30" stroke-width="2"/>
  <text x="89" y="55.2" font-family="sans-serif" font-size="13" text-anchor="middle" dominant-baseline="central" fill="#f6f4ec">
    <tspan x="89" dy="0">World Point</tspan>
    <tspan x="89" dy="15.6">(x, y)</tspan>
  </text>
  <rect x="33" y="169" width="112" height="48" rx="8" ry="8" fill="#1f3354" stroke="#0e1c30" stroke-width="2"/>
  <text x="89" y="193" font-family="sans-serif" font-size="13" text-anchor="middle" dominant-baseline="central" fill="#f6f4ec">Translated</text>
  <rect x="29" y="289" width="120" height="48" rx="8" ry="8" fill="#1f3354" stroke="#0e1c30" stroke-width="2"/>
  <text x="89" y="313" font-family="sans-serif" font-size="13" text-anchor="middle" dominant-baseline="central" fill="#f6f4ec">Local Point</text>
  <polyline points="89,97 89,117 89,149 89,169" fill="none" stroke="#2b466e" stroke-width="2"/>
  <polygon points="89,169 85,161 93,161" fill="#2b466e"/>
  <text x="89" y="121" font-family="sans-serif" font-size="12" text-anchor="middle" dominant-baseline="central" fill="#2b466e" stroke="#f7f4ec" stroke-width="3" stroke-linejoin="round" paint-order="stroke">subtract (shape.x, shape.y)</text>
  <polyline points="89,217 89,237 89,269 89,289" fill="none" stroke="#2b466e" stroke-width="2"/>
  <polygon points="89,289 85,281 93,281" fill="#2b466e"/>
  <text x="89" y="241" font-family="sans-serif" font-size="12" text-anchor="middle" dominant-baseline="central" fill="#2b466e" stroke="#f7f4ec" stroke-width="3" stroke-linejoin="round" paint-order="stroke">rotate by -shape.rotation</text>
  <text x="168" y="382" font-family="sans-serif" font-size="11" text-anchor="end" fill="#8d9bb1">Generated by DocuShark</text>
</svg>